<?xml version="1.0" encoding="UTF-8"?>
<mxfile host="app.diagrams.net" modified="2024-01-15T00:00:00.000Z" agent="draw.io" etag="abc123" version="22.1.16">
  <diagram name="Sistem Pelaporan" id="flowchart-sistem-pelaporan">
    <mxGraphModel dx="1422" dy="794" grid="1" gridSize="10" guides="1" tooltips="1" connect="1" arrows="1" fold="1" page="1" pageScale="1" pageWidth="827" pageHeight="1169" math="0" shadow="0">
      <root>
        <mxCell id="0" />
        <mxCell id="1" parent="0" />
        
        <!-- Start -->
        <mxCell id="start" value="Mulai" style="ellipse;whiteSpace=wrap;html=1;fillColor=#e1d5e7;strokeColor=#9673a6;fontSize=12;fontStyle=1;" vertex="1" parent="1">
          <mxGeometry x="364" y="40" width="100" height="60" as="geometry" />
        </mxCell>
        
        <!-- Akses Aplikasi -->
        <mxCell id="access-app" value="Pengguna Membuka/Mengakses Aplikasi" style="rounded=1;whiteSpace=wrap;html=1;fillColor=#dae8fc;strokeColor=#6c8ebf;fontSize=11;" vertex="1" parent="1">
          <mxGeometry x="314" y="140" width="200" height="60" as="geometry" />
        </mxCell>
        
        <!-- Decision: Sudah punya akun? -->
        <mxCell id="has-account" value="Sudah memiliki akun?" style="rhombus;whiteSpace=wrap;html=1;fillColor=#fff2cc;strokeColor=#d6b656;fontSize=11;" vertex="1" parent="1">
          <mxGeometry x="334" y="240" width="160" height="80" as="geometry" />
        </mxCell>
        
        <!-- Registrasi -->
        <mxCell id="register" value="Registrasi Akun Baru" style="rounded=1;whiteSpace=wrap;html=1;fillColor=#f8cecc;strokeColor=#b85450;fontSize=11;" vertex="1" parent="1">
          <mxGeometry x="134" y="250" width="120" height="60" as="geometry" />
        </mxCell>
        
        <!-- Login -->
        <mxCell id="login" value="Login dengan Akun yang Ada" style="rounded=1;whiteSpace=wrap;html=1;fillColor=#d5e8d4;strokeColor=#82b366;fontSize=11;" vertex="1" parent="1">
          <mxGeometry x="574" y="250" width="120" height="60" as="geometry" />
        </mxCell>
        
        <!-- Berhasil Masuk -->
        <mxCell id="login-success" value="Berhasil Masuk ke Aplikasi" style="rounded=1;whiteSpace=wrap;html=1;fillColor=#dae8fc;strokeColor=#6c8ebf;fontSize=11;" vertex="1" parent="1">
          <mxGeometry x="314" y="380" width="200" height="60" as="geometry" />
        </mxCell>
        
        <!-- Tekan Tombol Kamera -->
        <mxCell id="camera-button" value="Pengguna Menekan Tombol Kamera" style="rounded=1;whiteSpace=wrap;html=1;fillColor=#dae8fc;strokeColor=#6c8ebf;fontSize=11;" vertex="1" parent="1">
          <mxGeometry x="314" y="480" width="200" height="60" as="geometry" />
        </mxCell>
        
        <!-- Ambil Foto -->
        <mxCell id="take-photo" value="Pengguna Mengambil Foto sebagai Bukti Laporan" style="rounded=1;whiteSpace=wrap;html=1;fillColor=#dae8fc;strokeColor=#6c8ebf;fontSize=11;" vertex="1" parent="1">
          <mxGeometry x="314" y="580" width="200" height="60" as="geometry" />
        </mxCell>
        
        <!-- Isi Formulir -->
        <mxCell id="fill-form" value="Pengguna Mengisi Formulir Laporan:&#xa;• Judul laporan&#xa;• Kategori laporan&#xa;• Deskripsi laporan&#xa;• Alamat lengkap" style="rounded=1;whiteSpace=wrap;html=1;fillColor=#dae8fc;strokeColor=#6c8ebf;fontSize=11;align=left;" vertex="1" parent="1">
          <mxGeometry x="284" y="680" width="260" height="100" as="geometry" />
        </mxCell>
        
        <!-- Tekan Tombol Laporkan -->
        <mxCell id="submit-report" value="Pengguna Menekan Tombol &quot;Laporkan&quot;" style="rounded=1;whiteSpace=wrap;html=1;fillColor=#dae8fc;strokeColor=#6c8ebf;fontSize=11;" vertex="1" parent="1">
          <mxGeometry x="314" y="820" width="200" height="60" as="geometry" />
        </mxCell>
        
        <!-- Kirim ke Database -->
        <mxCell id="send-database" value="Sistem Mengirim Laporan ke Database" style="rounded=1;whiteSpace=wrap;html=1;fillColor=#e1d5e7;strokeColor=#9673a6;fontSize=11;" vertex="1" parent="1">
          <mxGeometry x="314" y="920" width="200" height="60" as="geometry" />
        </mxCell>
        
        <!-- Database Icon -->
        <mxCell id="database-icon" value="" style="shape=cylinder3;whiteSpace=wrap;html=1;boundedLbl=1;backgroundOutline=1;size=15;fillColor=#f0f0f0;strokeColor=#666666;fontSize=11;" vertex="1" parent="1">
          <mxGeometry x="564" y="930" width="60" height="80" as="geometry" />
        </mxCell>
        
        <!-- Database Label -->
        <mxCell id="database-label" value="Database" style="text;html=1;strokeColor=none;fillColor=none;align=center;verticalAlign=middle;whiteSpace=wrap;rounded=0;fontSize=10;fontStyle=1;" vertex="1" parent="1">
          <mxGeometry x="564" y="1020" width="60" height="20" as="geometry" />
        </mxCell>
        
        <!-- Admin Memeriksa -->
        <mxCell id="admin-check" value="Admin Menerima dan Memeriksa Laporan" style="rounded=1;whiteSpace=wrap;html=1;fillColor=#ffe6cc;strokeColor=#d79b00;fontSize=11;" vertex="1" parent="1">
          <mxGeometry x="314" y="1020" width="200" height="60" as="geometry" />
        </mxCell>
        
        <!-- Decision: Laporan Selesai -->
        <mxCell id="report-handled" value="Laporan Sudah Ditangani/Selesai?" style="rhombus;whiteSpace=wrap;html=1;fillColor=#fff2cc;strokeColor=#d6b656;fontSize=11;" vertex="1" parent="1">
          <mxGeometry x="334" y="1120" width="160" height="80" as="geometry" />
        </mxCell>
        
        <!-- Feedback -->
        <mxCell id="feedback" value="Pengguna Memberikan Feedback/Umpan Balik" style="rounded=1;whiteSpace=wrap;html=1;fillColor=#d5e8d4;strokeColor=#82b366;fontSize=11;" vertex="1" parent="1">
          <mxGeometry x="314" y="1240" width="200" height="60" as="geometry" />
        </mxCell>
        
        <!-- End -->
        <mxCell id="end" value="Selesai" style="ellipse;whiteSpace=wrap;html=1;fillColor=#e1d5e7;strokeColor=#9673a6;fontSize=12;fontStyle=1;" vertex="1" parent="1">
          <mxGeometry x="364" y="1340" width="100" height="60" as="geometry" />
        </mxCell>
        
        <!-- Arrows/Connections -->
        <mxCell id="arrow1" value="" style="endArrow=classic;html=1;rounded=0;exitX=0.5;exitY=1;exitDx=0;exitDy=0;entryX=0.5;entryY=0;entryDx=0;entryDy=0;" edge="1" parent="1" source="start" target="access-app">
          <mxGeometry width="50" height="50" relative="1" as="geometry">
            <mxPoint x="384" y="200" as="sourcePoint" />
            <mxPoint x="434" y="150" as="targetPoint" />
          </mxGeometry>
        </mxCell>
        
        <mxCell id="arrow2" value="" style="endArrow=classic;html=1;rounded=0;exitX=0.5;exitY=1;exitDx=0;exitDy=0;entryX=0.5;entryY=0;entryDx=0;entryDy=0;" edge="1" parent="1" source="access-app" target="has-account">
          <mxGeometry width="50" height="50" relative="1" as="geometry">
            <mxPoint x="384" y="250" as="sourcePoint" />
            <mxPoint x="434" y="200" as="targetPoint" />
          </mxGeometry>
        </mxCell>
        
        <mxCell id="arrow3" value="Tidak" style="endArrow=classic;html=1;rounded=0;exitX=0;exitY=0.5;exitDx=0;exitDy=0;entryX=1;entryY=0.5;entryDx=0;entryDy=0;" edge="1" parent="1" source="has-account" target="register">
          <mxGeometry width="50" height="50" relative="1" as="geometry">
            <mxPoint x="384" y="350" as="sourcePoint" />
            <mxPoint x="434" y="300" as="targetPoint" />
          </mxGeometry>
        </mxCell>
        
        <mxCell id="arrow4" value="Ya" style="endArrow=classic;html=1;rounded=0;exitX=1;exitY=0.5;exitDx=0;exitDy=0;entryX=0;entryY=0.5;entryDx=0;entryDy=0;" edge="1" parent="1" source="has-account" target="login">
          <mxGeometry width="50" height="50" relative="1" as="geometry">
            <mxPoint x="384" y="350" as="sourcePoint" />
            <mxPoint x="434" y="300" as="targetPoint" />
          </mxGeometry>
        </mxCell>
        
        <mxCell id="arrow5" value="" style="endArrow=classic;html=1;rounded=0;exitX=0.5;exitY=1;exitDx=0;exitDy=0;entryX=0;entryY=0.5;entryDx=0;entryDy=0;" edge="1" parent="1" source="register" target="login-success">
          <mxGeometry width="50" height="50" relative="1" as="geometry">
            <mxPoint x="194" y="400" as="sourcePoint" />
            <mxPoint x="314" y="410" as="targetPoint" />
          </mxGeometry>
        </mxCell>
        
        <mxCell id="arrow6" value="" style="endArrow=classic;html=1;rounded=0;exitX=0.5;exitY=1;exitDx=0;exitDy=0;entryX=1;entryY=0.5;entryDx=0;entryDy=0;" edge="1" parent="1" source="login" target="login-success">
          <mxGeometry width="50" height="50" relative="1" as="geometry">
            <mxPoint x="634" y="400" as="sourcePoint" />
            <mxPoint x="514" y="410" as="targetPoint" />
          </mxGeometry>
        </mxCell>
        
        <mxCell id="arrow7" value="" style="endArrow=classic;html=1;rounded=0;exitX=0.5;exitY=1;exitDx=0;exitDy=0;entryX=0.5;entryY=0;entryDx=0;entryDy=0;" edge="1" parent="1" source="login-success" target="camera-button">
          <mxGeometry width="50" height="50" relative="1" as="geometry">
            <mxPoint x="384" y="500" as="sourcePoint" />
            <mxPoint x="434" y="450" as="targetPoint" />
          </mxGeometry>
        </mxCell>
        
        <mxCell id="arrow8" value="" style="endArrow=classic;html=1;rounded=0;exitX=0.5;exitY=1;exitDx=0;exitDy=0;entryX=0.5;entryY=0;entryDx=0;entryDy=0;" edge="1" parent="1" source="camera-button" target="take-photo">
          <mxGeometry width="50" height="50" relative="1" as="geometry">
            <mxPoint x="384" y="600" as="sourcePoint" />
            <mxPoint x="434" y="550" as="targetPoint" />
          </mxGeometry>
        </mxCell>
        
        <mxCell id="arrow9" value="" style="endArrow=classic;html=1;rounded=0;exitX=0.5;exitY=1;exitDx=0;exitDy=0;entryX=0.5;entryY=0;entryDx=0;entryDy=0;" edge="1" parent="1" source="take-photo" target="fill-form">
          <mxGeometry width="50" height="50" relative="1" as="geometry">
            <mxPoint x="384" y="700" as="sourcePoint" />
            <mxPoint x="434" y="650" as="targetPoint" />
          </mxGeometry>
        </mxCell>
        
        <mxCell id="arrow10" value="" style="endArrow=classic;html=1;rounded=0;exitX=0.5;exitY=1;exitDx=0;exitDy=0;entryX=0.5;entryY=0;entryDx=0;entryDy=0;" edge="1" parent="1" source="fill-form" target="submit-report">
          <mxGeometry width="50" height="50" relative="1" as="geometry">
            <mxPoint x="384" y="850" as="sourcePoint" />
            <mxPoint x="434" y="800" as="targetPoint" />
          </mxGeometry>
        </mxCell>
        
        <mxCell id="arrow11" value="" style="endArrow=classic;html=1;rounded=0;exitX=0.5;exitY=1;exitDx=0;exitDy=0;entryX=0.5;entryY=0;entryDx=0;entryDy=0;" edge="1" parent="1" source="submit-report" target="send-database">
          <mxGeometry width="50" height="50" relative="1" as="geometry">
            <mxPoint x="384" y="950" as="sourcePoint" />
            <mxPoint x="434" y="900" as="targetPoint" />
          </mxGeometry>
        </mxCell>
        
        <!-- Arrow to Database Icon -->
        <mxCell id="arrow-to-db" value="" style="endArrow=classic;html=1;rounded=0;exitX=1;exitY=0.5;exitDx=0;exitDy=0;entryX=0;entryY=0.5;entryDx=0;entryDy=0;entryPerimeter=0;strokeColor=#666666;" edge="1" parent="1" source="send-database" target="database-icon">
          <mxGeometry width="50" height="50" relative="1" as="geometry">
            <mxPoint x="514" y="950" as="sourcePoint" />
            <mxPoint x="564" y="970" as="targetPoint" />
          </mxGeometry>
        </mxCell>
        
        <mxCell id="arrow12" value="" style="endArrow=classic;html=1;rounded=0;exitX=0.5;exitY=1;exitDx=0;exitDy=0;entryX=0.5;entryY=0;entryDx=0;entryDy=0;" edge="1" parent="1" source="send-database" target="admin-check">
          <mxGeometry width="50" height="50" relative="1" as="geometry">
            <mxPoint x="384" y="1050" as="sourcePoint" />
            <mxPoint x="434" y="1000" as="targetPoint" />
          </mxGeometry>
        </mxCell>
        
        <mxCell id="arrow13" value="" style="endArrow=classic;html=1;rounded=0;exitX=0.5;exitY=1;exitDx=0;exitDy=0;entryX=0.5;entryY=0;entryDx=0;entryDy=0;" edge="1" parent="1" source="admin-check" target="report-handled">
          <mxGeometry width="50" height="50" relative="1" as="geometry">
            <mxPoint x="384" y="1150" as="sourcePoint" />
            <mxPoint x="434" y="1100" as="targetPoint" />
          </mxGeometry>
        </mxCell>
        
        <mxCell id="arrow14" value="Ya" style="endArrow=classic;html=1;rounded=0;exitX=0.5;exitY=1;exitDx=0;exitDy=0;entryX=0.5;entryY=0;entryDx=0;entryDy=0;" edge="1" parent="1" source="report-handled" target="feedback">
          <mxGeometry width="50" height="50" relative="1" as="geometry">
            <mxPoint x="384" y="1270" as="sourcePoint" />
            <mxPoint x="434" y="1220" as="targetPoint" />
          </mxGeometry>
        </mxCell>
        
        <mxCell id="arrow15" value="" style="endArrow=classic;html=1;rounded=0;exitX=0.5;exitY=1;exitDx=0;exitDy=0;entryX=0.5;entryY=0;entryDx=0;entryDy=0;" edge="1" parent="1" source="feedback" target="end">
          <mxGeometry width="50" height="50" relative="1" as="geometry">
            <mxPoint x="384" y="1370" as="sourcePoint" />
            <mxPoint x="434" y="1320" as="targetPoint" />
          </mxGeometry>
        </mxCell>
        
        <!-- Loop back arrow for "Tidak" -->
        <mxCell id="arrow16" value="Tidak" style="endArrow=classic;html=1;rounded=0;exitX=0;exitY=0.5;exitDx=0;exitDy=0;" edge="1" parent="1" source="report-handled">
          <mxGeometry width="50" height="50" relative="1" as="geometry">
            <mxPoint x="334" y="1160" as="sourcePoint" />
            <mxPoint x="200" y="1160" as="targetPoint" />
          </mxGeometry>
        </mxCell>
        
        <mxCell id="arrow17" value="" style="endArrow=classic;html=1;rounded=0;" edge="1" parent="1">
          <mxGeometry width="50" height="50" relative="1" as="geometry">
            <mxPoint x="200" y="1160" as="sourcePoint" />
            <mxPoint x="200" y="1040" as="targetPoint" />
          </mxGeometry>
        </mxCell>
        
        <mxCell id="arrow18" value="Menunggu" style="endArrow=classic;html=1;rounded=0;entryX=0;entryY=0.5;entryDx=0;entryDy=0;" edge="1" parent="1" target="admin-check">
          <mxGeometry width="50" height="50" relative="1" as="geometry">
            <mxPoint x="200" y="1040" as="sourcePoint" />
            <mxPoint x="314" y="1050" as="targetPoint" />
          </mxGeometry>
        </mxCell>
        
      </root>
    </mxGraphModel>
  </diagram>
</mxfile>